<svg width="400" height="400" viewBox="0 0 400 400" fill="none" xmlns="http://www.w3.org/2000/svg">
<clipPath id="hero-clip-path" fill-rule="evenodd" clip-rule="evenodd" d="M203.662 0.125002C232.744 1.25096 262.244 7.05383 287.069 21.6588C311.047 35.7646 323.693 61.4905 342.343 81.7105C360.865 101.793 389.28 115.556 397.368 141.245C405.46 166.948 392.957 194.175 385.932 220.167C379.551 243.779 369.59 265.701 357.883 287.346C345.813 309.661 335.957 334.077 315.706 350.001C295.187 366.137 267.795 369.971 242.627 377.978C215.209 386.701 188.6 402.869 159.925 399.56C131.062 396.23 106.007 378.277 84.2834 359.707C63.4023 341.857 50.9966 317.5 36.8382 294.341C22.5994 271.051 3.02732 249.185 0.276739 222.3C-2.47148 195.438 16.0222 171.329 21.5452 144.865C27.7531 115.12 16.7831 80.5371 35.0291 55.7838C53.0421 31.3465 87.7421 24.8083 117.209 15.0824C145.209 5.84088 174.082 -1.02024 203.662 0.125002Z" fill="#C4C4C4"/>
</svg>
