<svg width="202" height="46" viewBox="0 0 202 46" fill="none" xmlns="http://www.w3.org/2000/svg">
<path d="M0.736 46V0.559998H20.832C22.9227 0.559998 24.8427 0.986664 26.592 1.84C28.384 2.69333 29.92 3.84533 31.2 5.296C32.5227 6.74666 33.5253 8.368 34.208 10.16C34.9333 11.952 35.296 13.7867 35.296 15.664C35.296 17.584 34.9547 19.44 34.272 21.232C33.632 22.9813 32.6933 24.5173 31.456 25.84C30.2187 27.1627 28.768 28.1867 27.104 28.912L37.472 46H27.744L18.4 30.768H9.568V46H0.736ZM9.568 23.024H20.64C21.7493 23.024 22.7307 22.704 23.584 22.064C24.4373 21.3813 25.12 20.4853 25.632 19.376C26.144 18.2667 26.4 17.0293 26.4 15.664C26.4 14.2133 26.1013 12.9547 25.504 11.888C24.9067 10.7787 24.1387 9.904 23.2 9.264C22.304 8.624 21.3227 8.304 20.256 8.304H9.568V23.024ZM74.8505 38.256V46H43.2985V0.559998H74.2745V8.304H52.1305V19.248H71.2665V26.416H52.1305V38.256H74.8505ZM118.792 46V16.176L107.144 38.384H102.216L90.568 16.176V46H81.736V0.559998H91.208L104.648 26.416L118.216 0.559998H127.624V46H118.792ZM174.167 46V16.176L162.519 38.384H157.591L145.943 16.176V46H137.111V0.559998H146.583L160.023 26.416L173.591 0.559998H182.999V46H174.167ZM192.486 46V0.559998H201.318V46H192.486Z" fill="#ED7A45"/>
</svg>
